<svg width="117" height="35" viewBox="0 0 117 35" fill="none" xmlns="http://www.w3.org/2000/svg">
<path fill-rule="evenodd" clip-rule="evenodd" d="M72.1214 27.3719C65.3906 32.3486 55.6004 35.0001 47.1564 35.0001C35.3265 35.0001 24.7205 30.6353 16.6435 23.3742C16.0317 22.8031 16.562 22.0281 17.337 22.4768C26.0258 27.5351 36.7542 30.5537 47.8498 30.5537C55.3149 30.5537 63.5549 29.0036 71.1424 25.781C72.2846 25.3323 73.2228 26.556 72.1214 27.3719Z" fill="#626262"/>
<path fill-rule="evenodd" clip-rule="evenodd" d="M74.9357 24.1491C74.0791 23.0478 69.2248 23.6189 67.0628 23.9044C66.4101 23.986 66.2877 23.4149 66.8996 23.007C70.7749 20.2739 77.0977 21.0897 77.832 21.9871C78.5663 22.8846 77.628 29.2482 73.9975 32.2669C73.4264 32.7156 72.8961 32.4708 73.1409 31.8589C73.9567 29.8193 75.7924 25.2913 74.9357 24.1491Z" fill="#626262"/>
<path fill-rule="evenodd" clip-rule="evenodd" d="M67.1853 3.8345V1.18298C67.1853 0.775056 67.4709 0.530298 67.838 0.530298L79.6678 0.530298C80.035 0.530298 80.3613 0.815848 80.3613 1.18298V3.42657C80.3613 3.7937 80.035 4.28322 79.4639 5.09907L73.345 13.8287C75.6294 13.7879 78.0361 14.1142 80.0758 15.2564C80.5245 15.5012 80.6468 15.9091 80.6876 16.2762V19.0909C80.6876 19.4988 80.2797 19.9475 79.831 19.7028C76.2005 17.7855 71.3462 17.5816 67.3485 19.7436C66.9406 19.9475 66.4918 19.5396 66.4918 19.1317V16.4394C66.4918 16.0315 66.4918 15.2972 66.9406 14.6445L74.0385 4.48718L67.8788 4.48718C67.5117 4.48718 67.1853 4.20163 67.1853 3.8345V3.8345ZM24.0676 20.2739H20.4779C20.1515 20.2331 19.866 19.9883 19.8252 19.662L19.8252 1.22378C19.8252 0.856643 20.1515 0.571093 20.5186 0.571093L23.8636 0.571093C24.2308 0.571093 24.4755 0.856641 24.5163 1.18298V3.58974H24.5979C25.4545 1.26456 27.127 0.163168 29.3298 0.163168C31.5734 0.163168 33.0012 1.26456 33.9802 3.58974C34.8368 1.26456 36.8357 0.163168 38.9569 0.163168C40.4662 0.163168 42.0979 0.775056 43.1177 2.20279C44.2599 3.75291 44.0151 5.99651 44.0151 7.99534V19.662C44.0151 20.0291 43.6888 20.3147 43.3217 20.3147H39.7727C39.4056 20.2739 39.12 19.9883 39.12 19.662V9.87179C39.12 9.09673 39.2016 7.13869 39.0385 6.40442C38.7529 5.18064 37.9779 4.81351 36.9172 4.81351C36.0606 4.81351 35.1224 5.38461 34.7552 6.32284C34.3881 7.26107 34.4289 8.81118 34.4289 9.87179V19.662C34.4289 20.0291 34.1026 20.3147 33.7354 20.3147H30.1457C29.7786 20.2739 29.493 19.9883 29.493 19.662L29.493 9.87179C29.493 7.83216 29.8193 4.77272 27.2902 4.77272C24.7203 4.77272 24.8019 7.70978 24.8019 9.87179L24.8019 19.662C24.7611 19.9883 24.4755 20.2739 24.0676 20.2739V20.2739ZM90.5594 0.163168C95.9033 0.163168 98.7995 4.73193 98.7995 10.5653C98.7995 16.1946 95.6177 20.6818 90.5594 20.6818C85.338 20.6818 82.4825 16.1131 82.4825 10.4021C82.4417 4.65035 85.338 0.163168 90.5594 0.163168ZM90.5594 3.95687C87.9079 3.95687 87.7448 7.58741 87.7448 9.831C87.7448 12.0746 87.704 16.8881 90.5186 16.8881C93.2925 16.8881 93.4557 13.0128 93.4557 10.6469C93.4557 9.09674 93.3741 7.22028 92.9254 5.75175C92.5175 4.44639 91.7016 3.95687 90.5594 3.95687ZM105.693 20.2739H102.104C101.737 20.2331 101.451 19.9476 101.451 19.6212V1.14219C101.492 0.815846 101.777 0.530298 102.145 0.530298L105.49 0.530298C105.816 0.530298 106.061 0.775061 106.142 1.06061V3.87529H106.224C107.244 1.34615 108.631 0.163168 111.119 0.163168C112.71 0.163168 114.301 0.734258 115.321 2.32517C116.259 3.7937 116.259 6.28205 116.259 8.07692V19.7028C116.218 20.0291 115.932 20.2739 115.565 20.2739H111.976C111.649 20.2331 111.364 19.9883 111.323 19.7028V9.66782C111.323 7.6282 111.568 4.69114 109.079 4.69114C108.223 4.69114 107.407 5.26224 106.999 6.15968C106.509 7.30187 106.428 8.40326 106.428 9.66782V19.6212C106.387 19.9883 106.061 20.2739 105.693 20.2739V20.2739ZM57.7622 11.4627C57.7622 12.8497 57.803 14.0326 57.1096 15.2972C56.5385 16.317 55.641 16.9289 54.6212 16.9289C53.2343 16.9289 52.4184 15.8683 52.4184 14.3182C52.4184 11.2587 55.1515 10.6876 57.7622 10.6876V11.4627ZM61.3928 20.2331C61.148 20.4371 60.8217 20.4778 60.5361 20.3147C59.3531 19.3357 59.1084 18.8461 58.4557 17.9079C56.4977 19.9068 55.0699 20.5186 52.5408 20.5186C49.5221 20.5186 47.1562 18.6422 47.1562 14.9301C47.1562 11.993 48.7471 10.035 50.9907 9.05594C52.9487 8.19929 55.6818 8.03613 57.7622 7.79138V7.34266C57.7622 6.48601 57.8438 5.4662 57.3135 4.73194C56.8648 4.07926 56.049 3.7937 55.3147 3.7937C53.9277 3.7937 52.704 4.48718 52.4184 5.95571C52.3368 6.28205 52.1329 6.60838 51.8065 6.60838L48.3392 6.24125C48.0536 6.15967 47.7273 5.95571 47.8089 5.50699C48.6247 1.26457 52.4184 0 55.845 0C57.5991 0 59.8835 0.448715 61.2704 1.79487C63.0245 3.42657 62.8613 5.62937 62.8613 7.99534V13.5839C62.8613 15.2564 63.5548 15.9907 64.2075 16.9289C64.4522 17.2552 64.493 17.6632 64.2075 17.8671C63.4324 18.479 62.127 19.6212 61.3928 20.2331V20.2331ZM10.6469 11.4627C10.6469 12.8497 10.6876 14.0326 9.99417 15.2972C9.42308 16.317 8.52564 16.9289 7.50582 16.9289C6.11888 16.9289 5.30303 15.8683 5.30303 14.3182C5.30303 11.2587 8.03613 10.6876 10.6469 10.6876V11.4627ZM14.2366 20.2331C13.9918 20.4371 13.6655 20.4778 13.38 20.3147C12.197 19.3357 11.9522 18.8461 11.2995 17.9079C9.34149 19.9068 7.91375 20.5186 5.38461 20.5186C2.36597 20.5186 0 18.6422 0 14.9301C0 11.993 1.59091 10.035 3.8345 9.05594C5.79254 8.19929 8.52564 8.03613 10.6061 7.79138V7.34266C10.6061 6.48601 10.6876 5.4662 10.1573 4.73194C9.70862 4.07926 8.89277 3.7937 8.15851 3.7937C6.77156 3.7937 5.54778 4.48718 5.26224 5.95571C5.18065 6.28205 4.97669 6.60838 4.65035 6.60838L1.18298 6.24125C0.897433 6.15967 0.571098 5.95571 0.652683 5.50699C1.46853 1.26457 5.26224 0 8.68881 0C10.4429 0 12.7273 0.448715 14.1142 1.79487C15.8683 3.42657 15.7051 5.62937 15.7051 7.99534V13.5839C15.7051 15.2564 16.3986 15.9907 17.0513 16.9289C17.296 17.2552 17.3368 17.6632 17.0513 17.8671C16.2762 18.479 14.9709 19.6212 14.2366 20.2331V20.2331Z" fill="#222222"/>
</svg>
