<svg width="256" height="256" viewBox="0 0 256 256" fill="none" xmlns="http://www.w3.org/2000/svg">
<path fill-rule="evenodd" clip-rule="evenodd" d="M25.9919 25.1109H25.9937L25.9937 25.0904C25.9937 18.7108 28.8717 12.9302 33.498 8.75733C36.3069 6.22373 39.766 4.2691 43.6239 3.12011C39.7652 4.26903 36.3055 6.22388 33.4962 8.75787C28.8731 12.9278 25.9959 18.7032 25.9919 25.0775L25.9919 25.0909L25.9919 25.1109ZM193.061 217.353C188.795 218.645 184.233 219.346 179.496 219.346V219.347C184.233 219.346 188.795 218.645 193.061 217.353ZM179.494 252.882L153.924 240.64L153.922 240.641L179.494 252.883V252.882ZM128.346 252.877L128.346 219.341L34.9 219.341C29.9729 219.341 25.9767 215.736 25.9767 211.292L25.9653 70.3979C25.9653 66.886 28.4607 63.8984 31.939 62.7995C28.4598 63.898 25.9635 66.886 25.9635 70.3985L25.9749 211.293C25.9749 215.737 29.9711 219.342 34.8982 219.342L128.344 219.341L128.344 252.878L128.346 252.877ZM187.515 61.2541C191.223 60.1552 194.552 58.2768 197.258 55.8364C201.714 51.8172 204.478 46.2823 204.478 40.2099C204.478 34.1068 201.714 28.5618 197.275 24.5579C192.836 20.554 186.694 18.0656 179.933 18.0707L51.6285 18.0656C50.7841 18.0656 49.9689 18.1899 49.2038 18.4196C49.9684 18.1902 50.7829 18.0662 51.6267 18.0662L179.931 18.0713C186.692 18.0662 192.834 20.5545 197.273 24.5584C201.712 28.5623 204.476 34.1074 204.476 40.2105C204.476 46.2829 201.712 51.8177 197.256 55.837C194.551 58.277 191.223 60.1551 187.515 61.2541ZM176.805 47.8647C175.944 48.1139 175.027 48.2485 174.075 48.2485L51.6285 48.2536C44.6011 48.2536 38.1867 45.6424 33.5264 41.4388L33.5252 41.4399C38.1855 45.6431 44.5996 48.2541 51.6267 48.2541L174.073 48.249C175.026 48.249 175.944 48.1142 176.805 47.8647ZM33.5031 41.4587C29.0474 37.4395 26.2208 31.9305 26.0108 25.843C25.9881 25.5974 25.971 25.357 25.971 25.1114H25.9692C25.9692 25.2899 25.9782 25.4656 25.9918 25.6426C25.9969 25.7094 26.0027 25.7763 26.0089 25.8436C26.0232 26.2568 26.0495 26.6673 26.0876 27.0749C26.6102 32.6724 29.3483 37.7133 33.5018 41.4598L33.5031 41.4587ZM24.0057 25.1114C24.0057 25.4221 24.0257 25.7115 24.0486 25.9676C24.2942 32.6168 27.3894 38.5907 32.1867 42.9178L33.5019 44.1041L33.568 44.0444C38.4384 47.8928 44.7701 50.2177 51.6268 50.2177L174.073 50.2125C179.889 50.2125 184.96 45.9145 184.96 40.2002C184.96 34.486 179.889 30.188 174.073 30.188L51.6164 30.188C50.1655 30.1914 48.8598 29.7321 47.8637 29.0059L47.4357 28.6198C46.4639 27.7433 45.8825 26.6376 45.773 25.4833C45.7795 25.3413 45.7795 25.2177 45.7795 25.1299V25.1298L45.7795 24.6922C45.898 23.553 46.4769 22.4678 47.4357 21.6029C48.5016 20.6415 49.9807 20.0297 51.6267 20.0297L179.933 20.0348C186.211 20.03 191.883 22.3411 195.958 26.0164C200.03 29.6895 202.513 34.7223 202.513 40.2105C202.513 45.6644 200.033 50.6879 195.941 54.3789C191.852 58.0665 186.185 60.3814 179.93 60.3862L34.8869 60.3862C29.0708 60.3862 24 64.6843 24 70.3986L24.0113 211.293C24.0113 217.007 29.0821 221.305 34.8982 221.305L126.38 221.305V255.994L153.922 242.818L181.458 256L181.458 221.271C192.961 220.817 203.388 216.393 211.076 209.459C219.202 202.129 224.304 191.956 224.304 180.7L224.304 40.2054C224.304 29.0898 219.232 19.0185 211.177 11.7533C203.114 4.49103 192.054 0 179.943 0L51.6211 5.81122e-06C44.0771 6.77976e-06 37.1876 2.78398 32.181 7.29984C27.6539 11.3833 24.6354 16.9361 24.1102 23.1475L24.0057 23.1475L24.0057 25.1114ZM45.7795 201.275L45.785 80.4107L179.943 80.4107C188.164 80.4107 195.894 78.3607 202.524 74.7872L202.524 180.695C202.524 186.272 199.993 191.393 195.822 195.155C191.654 198.914 185.868 201.275 179.494 201.275H45.7795ZM187.252 202.116C191.015 200.997 194.393 199.089 197.138 196.613C201.674 192.522 204.489 186.89 204.489 180.695L204.49 71.3502C204.489 71.3506 204.488 71.351 204.488 71.3514L204.488 180.695C204.488 186.89 201.672 192.523 197.137 196.613C194.392 199.089 191.014 200.997 187.252 202.116ZM191.885 76.8963C188.094 77.905 184.086 78.4467 179.945 78.4467L43.8234 78.4467V78.4472L179.943 78.4472C184.084 78.4472 188.093 77.9054 191.885 76.8963Z" fill="#F8CD5F"/>
</svg>
