<svg width="653" height="320" viewBox="0 0 653 320" fill="none" xmlns="http://www.w3.org/2000/svg">
<circle cx="522.992" cy="223.907" r="3.64968" transform="rotate(90 522.992 223.907)" fill="#F8CD5F"/>
<circle cx="554.848" cy="223.907" r="3.64968" transform="rotate(90 554.848 223.907)" fill="#F8CD5F"/>
<circle cx="586.147" cy="223.907" r="3.64968" transform="rotate(90 586.147 223.907)" fill="#F8CD5F"/>
<circle cx="617.447" cy="192.545" r="3.64968" transform="rotate(90 617.447 192.545)" fill="#F8CD5F"/>
<circle cx="617.447" cy="66.9114" r="3.64968" transform="rotate(90 617.447 66.9114)" fill="#F8CD5F"/>
<circle cx="617.447" cy="3.64968" r="3.64968" transform="rotate(90 617.447 3.64968)" fill="#F8CD5F"/>
<circle cx="648.746" cy="66.9114" r="3.64968" transform="rotate(90 648.746 66.9114)" fill="#F8CD5F"/>
<circle cx="648.746" cy="223.907" r="3.64968" transform="rotate(90 648.746 223.907)" fill="#F8CD5F"/>
<circle cx="648.746" cy="98.8113" r="3.64968" transform="rotate(90 648.746 98.8113)" fill="#F8CD5F"/>
<circle cx="586.147" cy="161.183" r="3.64968" transform="rotate(90 586.147 161.183)" fill="#F8CD5F"/>
<circle cx="586.147" cy="129.822" r="3.64968" transform="rotate(90 586.147 129.822)" fill="#F8CD5F"/>
<circle cx="586.147" cy="98.8113" r="3.64968" transform="rotate(90 586.147 98.8113)" fill="#F8CD5F"/>
<circle cx="586.147" cy="35.5501" r="3.64968" transform="rotate(90 586.147 35.5501)" fill="#F8CD5F"/>
<circle cx="586.147" cy="3.64968" r="3.64968" transform="rotate(90 586.147 3.64968)" fill="#F8CD5F"/>
<circle cx="554.848" cy="285.216" r="3.64968" transform="rotate(90 554.848 285.216)" fill="#F8CD5F"/>
<circle cx="461.132" cy="223.907" r="3.64968" transform="rotate(90 461.132 223.907)" fill="#F8CD5F"/>
<circle cx="430.762" cy="223.907" r="3.64968" transform="rotate(90 430.762 223.907)" fill="#F8CD5F"/>
<circle cx="399.823" cy="223.907" r="3.64968" transform="rotate(90 399.823 223.907)" fill="#F8CD5F"/>
<circle cx="399.823" cy="254.371" r="3.64968" transform="rotate(90 399.823 254.371)" fill="#F8CD5F"/>
<circle cx="368.884" cy="223.907" r="3.64968" transform="rotate(90 368.884 223.907)" fill="#F8CD5F"/>
<circle cx="337.945" cy="223.907" r="3.64968" transform="rotate(90 337.945 223.907)" fill="#F8CD5F"/>
<circle cx="307.005" cy="223.907" r="3.64968" transform="rotate(90 307.005 223.907)" fill="#F8CD5F"/>
<circle cx="276.635" cy="223.907" r="3.64968" transform="rotate(90 276.635 223.907)" fill="#F8CD5F"/>
<circle cx="245.696" cy="223.907" r="3.64968" transform="rotate(90 245.696 223.907)" fill="#F8CD5F"/>
<circle cx="218.682" cy="223.907" r="3.64968" transform="rotate(90 218.682 223.907)" fill="#F8CD5F"/>
<circle cx="188.312" cy="223.907" r="3.64968" transform="rotate(90 188.312 223.907)" fill="#F8CD5F"/>
<circle cx="157.942" cy="223.907" r="3.64968" transform="rotate(90 157.942 223.907)" fill="#F8CD5F"/>
<circle cx="127.003" cy="223.907" r="3.64968" transform="rotate(90 127.003 223.907)" fill="#F8CD5F"/>
<circle cx="94.5959" cy="223.907" r="3.64968" transform="rotate(90 94.5959 223.907)" fill="#F8CD5F"/>
<circle cx="66.2634" cy="223.907" r="3.64968" transform="rotate(90 66.2634 223.907)" fill="#F8CD5F"/>
<circle cx="66.2634" cy="192.545" r="3.64968" transform="rotate(90 66.2634 192.545)" fill="#F8CD5F"/>
<circle cx="66.2634" cy="161.183" r="3.64968" transform="rotate(90 66.2634 161.183)" fill="#F8CD5F"/>
<circle cx="66.2634" cy="129.822" r="3.64968" transform="rotate(90 66.2634 129.822)" fill="#F8CD5F"/>
<circle cx="35.3244" cy="98.4607" r="3.64968" transform="rotate(90 35.3244 98.4607)" fill="#F8CD5F"/>
<circle cx="66.2634" cy="67.0994" r="3.64968" transform="rotate(90 66.2634 67.0994)" fill="#F8CD5F"/>
<circle cx="66.2634" cy="35.7381" r="3.64968" transform="rotate(90 66.2634 35.7381)" fill="#F8CD5F"/>
<circle cx="3.64964" cy="35.7381" r="3.64968" transform="rotate(90 3.64964 35.7381)" fill="#F8CD5F"/>
<circle cx="35.3244" cy="161.183" r="3.64968" transform="rotate(90 35.3244 161.183)" fill="#F8CD5F"/>
<circle cx="3.64964" cy="161.183" r="3.64968" transform="rotate(90 3.64964 161.183)" fill="#F8CD5F"/>
<circle cx="94.5959" cy="285.216" r="3.64968" transform="rotate(90 94.5959 285.216)" fill="#F8CD5F"/>
<circle cx="35.3244" cy="223.907" r="3.64968" transform="rotate(90 35.3244 223.907)" fill="#F8CD5F"/>
<circle cx="157.942" cy="254.371" r="3.64968" transform="rotate(90 157.942 254.371)" fill="#F8CD5F"/>
<circle cx="276.635" cy="285.216" r="3.64968" transform="rotate(90 276.635 285.216)" fill="#F8CD5F"/>
<circle cx="337.945" cy="254.371" r="3.64968" transform="rotate(90 337.945 254.371)" fill="#F8CD5F"/>
<circle cx="307.005" cy="254.371" r="3.64968" transform="rotate(90 307.005 254.371)" fill="#F8CD5F"/>
<circle cx="218.682" cy="254.371" r="3.64968" transform="rotate(90 218.682 254.371)" fill="#F8CD5F"/>
<circle cx="218.682" cy="285.216" r="3.64968" transform="rotate(90 218.682 285.216)" fill="#F8CD5F"/>
<circle cx="188.312" cy="285.216" r="3.64968" transform="rotate(90 188.312 285.216)" fill="#F8CD5F"/>
<circle cx="218.682" cy="316.064" r="3.64968" transform="rotate(90 218.682 316.064)" fill="#F8CD5F"/>
<circle cx="337.945" cy="285.216" r="3.64968" transform="rotate(90 337.945 285.216)" fill="#F8CD5F"/>
<circle cx="368.884" cy="316.064" r="3.64968" transform="rotate(90 368.884 316.064)" fill="#F8CD5F"/>
<circle cx="430.762" cy="285.216" r="3.64968" transform="rotate(90 430.762 285.216)" fill="#F8CD5F"/>
</svg>
