<svg width="168" height="55" viewBox="0 0 168 55" fill="none" xmlns="http://www.w3.org/2000/svg">
<path fill-rule="evenodd" clip-rule="evenodd" d="M3.19164 0.944554C11.8439 5.31418 20.256 9.8432 28.5768 14.4341V18.271L32.4609 16.5848C37.2888 19.2651 42.0926 21.9622 46.9016 24.6551C50.0317 26.3528 49.9562 28.3871 46.9016 30.1006C32.6602 38.411 18.4188 46.6416 4.17735 54.0691C2.49745 55.0118 0.900391 54.9447 0.900391 52.4405C0.900391 35.5849 0.900391 18.7282 0.900391 1.87259C0.900391 0.0490267 2.21956 0.418143 3.19164 0.944554Z" fill="#222222"/>
<path fill-rule="evenodd" clip-rule="evenodd" d="M7.80762 7.38098H28.5767V18.271L32.9097 16.3897L37.2436 18.271V7.38098H41.8859C42.6703 7.38098 43.1631 8.06888 43.1631 8.77775V32.2796C31.3776 39.1408 19.5921 45.9034 7.80762 52.1584V7.38098Z" fill="#626262"/>
<path fill-rule="evenodd" clip-rule="evenodd" d="M15.536 47.988V7.38098H7.80762V52.1584C10.383 50.791 12.9595 49.3995 15.536 47.988Z" fill="#959595"/>
<path fill-rule="evenodd" clip-rule="evenodd" d="M64.5874 12.3409C64.5874 7.91674 68.3059 4.31464 72.7301 4.31464C75.1759 4.31464 76.9162 5.27508 78.2294 6.52586L76.6833 8.07203C75.7448 7.19092 74.472 6.50729 72.7284 6.50729C69.4976 6.50729 66.9724 9.10843 66.9724 12.3392C66.9724 15.5699 69.4976 18.1745 72.7267 18.1745C74.8214 18.1745 76.0131 17.3338 76.7778 16.5675C77.404 15.9413 77.8142 15.0416 77.9729 13.8077H72.7301V11.6201H80.1098C80.1875 12.0117 80.228 12.481 80.228 12.989C80.228 14.6314 79.7773 16.6688 78.3273 18.1187C76.9162 19.5873 75.1168 20.3705 72.7284 20.3705C68.3026 20.3705 64.584 16.7718 64.584 12.3442L64.5874 12.3409ZM86.1932 10.0317C83.3355 10.0317 81.0027 12.2058 81.0027 15.1986C81.0027 18.1761 83.3338 20.3654 86.1932 20.3654C89.0526 20.3654 91.3803 18.1728 91.3803 15.1969C91.3803 12.2041 89.0509 10.0301 86.1932 10.0317V10.0317ZM86.1932 18.3331C84.6285 18.3331 83.2764 17.0418 83.2764 15.2003C83.2764 13.3401 84.6268 12.0674 86.1932 12.0674C87.7579 12.0674 89.1083 13.3385 89.1083 15.2003C89.1083 17.0401 87.7596 18.3331 86.1932 18.3331ZM97.511 10.0317C94.6532 10.0317 92.3239 12.2058 92.3239 15.1986C92.3239 18.1761 94.6532 20.3654 97.511 20.3654C100.369 20.3654 102.698 18.1728 102.698 15.1969C102.698 12.2041 100.37 10.0301 97.511 10.0317V10.0317ZM97.511 18.3331C95.9462 18.3331 94.5942 17.0418 94.5942 15.2003C94.5942 13.3401 95.9445 12.0674 97.511 12.0674C99.0757 12.0674 100.428 13.3385 100.428 15.2003C100.428 17.0401 99.0757 18.3331 97.511 18.3331ZM111.401 10.3457V11.1863H111.324C110.815 10.577 109.836 10.0301 108.604 10.0301C106.02 10.0301 103.648 12.302 103.648 15.2205C103.648 18.1154 106.018 20.3688 108.604 20.3688C109.836 20.3688 110.815 19.8219 111.324 19.1957H111.401V19.9384C111.401 21.915 110.344 22.9733 108.641 22.9733C107.25 22.9733 106.39 21.974 106.037 21.1351L104.059 21.9572C104.626 23.3261 106.135 25.0107 108.64 25.0107C111.3 25.0107 113.552 23.4426 113.552 19.6261V10.344L111.401 10.3457ZM108.798 18.3331C107.234 18.3331 105.919 17.0199 105.919 15.2205C105.919 13.4009 107.232 12.0691 108.798 12.0691C110.345 12.0691 111.558 13.3992 111.558 15.2205C111.56 17.0199 110.346 18.3331 108.798 18.3331ZM115.12 4.86322H117.392V20.0548H115.12V4.86322ZM123.619 18.3331C122.464 18.3331 121.64 17.8031 121.115 16.7684L128.026 13.9073L127.788 13.3199C127.359 12.167 126.046 10.0317 123.364 10.0317C120.702 10.0317 118.489 12.1265 118.489 15.2003C118.489 18.0951 120.682 20.3671 123.619 20.3671C125.988 20.3671 127.359 18.9205 127.926 18.0765L126.164 16.9034C125.575 17.766 124.771 18.3348 123.619 18.3331V18.3331ZM123.441 12.0286C124.341 12.0286 125.104 12.4793 125.359 13.1241L120.737 15.0433C120.68 13.0464 122.285 12.0286 123.441 12.0286V12.0286ZM137.995 4.86322H132.563V20.0548H134.83V14.3006H137.997C140.51 14.3006 142.981 12.481 142.981 9.58106C142.981 6.68622 140.512 4.86491 138 4.86491L137.995 4.86322ZM138.054 12.1856H134.83V6.97654H138.054C139.749 6.97654 140.714 8.38261 140.714 9.58106C140.714 10.7593 139.749 12.1856 138.054 12.1856V12.1856ZM146.497 20.0548V4.86322H144.23V20.0548H146.497ZM156.681 20.0278V14.2044C156.681 11.507 154.665 10.0031 152.064 10.0031C150.425 10.0031 148.725 10.7272 148.021 12.3291L150.033 13.168C150.464 12.3291 151.264 12.0539 152.106 12.0539C153.278 12.0539 154.469 12.7578 154.488 14.0103V14.1672C154.078 13.9326 153.2 13.5798 152.123 13.5798C149.954 13.5798 147.746 14.7715 147.746 16.9996C147.746 19.0336 149.525 20.3418 151.519 20.3418C153.045 20.3418 153.884 19.6582 154.41 18.8581H154.488V20.0312H156.679L156.681 20.0278ZM151.794 18.3297C151.051 18.3297 150.015 17.9584 150.015 17.0418C150.015 15.8687 151.306 15.4163 152.42 15.4163C153.418 15.4163 153.885 15.6307 154.493 15.9244C154.319 17.2883 153.166 18.3129 151.794 18.3297V18.3297ZM164.653 10.3356L162.053 16.9203H161.976L159.278 10.3356H156.836L160.88 19.5417L158.573 24.6613H160.938L167.171 10.3356H164.653Z" fill="#222222"/>
<path d="M72.8736 35.7434C73.7589 35.0995 74.3021 34.0935 74.3021 32.8662C74.3021 30.6127 72.451 28.9628 70.1774 28.9628H64.584V43.0471H70.6201C72.954 43.0471 74.8454 41.3569 74.8454 39.023C74.8454 37.514 74.0607 36.3671 72.8736 35.7434ZM70.1774 31.1358C71.2036 31.1358 71.9883 31.9406 71.9883 32.9869C71.9883 34.0332 71.2036 34.838 70.1774 34.838H66.8978V31.1358H70.1774ZM70.6201 40.8741H66.8978V36.9305H70.6201C71.7066 36.9305 72.5315 37.7957 72.5315 38.9023C72.5315 40.0089 71.7066 40.8741 70.6201 40.8741Z" fill="#222222"/>
<path d="M81.5703 43.3086C84.5279 43.3086 86.882 40.9948 86.882 38.017C86.882 35.019 84.5279 32.7253 81.5703 32.7253C78.6327 32.7253 76.2585 35.019 76.2585 38.017C76.2585 40.9948 78.6327 43.3086 81.5703 43.3086ZM81.5703 41.196C79.7997 41.196 78.4315 39.8479 78.4315 38.017C78.4315 36.186 79.7997 34.838 81.5703 34.838C83.3408 34.838 84.709 36.186 84.709 38.017C84.709 39.8479 83.3408 41.196 81.5703 41.196Z" fill="#222222"/>
<path d="M93.5953 43.3086C96.553 43.3086 98.9071 40.9948 98.9071 38.017C98.9071 35.019 96.553 32.7253 93.5953 32.7253C90.6577 32.7253 88.2835 35.019 88.2835 38.017C88.2835 40.9948 90.6577 43.3086 93.5953 43.3086ZM93.5953 41.196C91.8247 41.196 90.4565 39.8479 90.4565 38.017C90.4565 36.186 91.8247 34.838 93.5953 34.838C95.3659 34.838 96.7341 36.186 96.7341 38.017C96.7341 39.8479 95.3659 41.196 93.5953 41.196Z" fill="#222222"/>
<path d="M109.765 43.0471L105.178 37.9164L109.604 32.9869H106.948L103.045 37.4335V28.9628H100.872V43.0471H103.045V38.3993L107.17 43.0471H109.765Z" fill="#222222"/>
<path d="M112.471 35.7635C112.471 35.0392 113.155 34.6971 113.94 34.6971C114.765 34.6971 115.469 35.0593 115.831 35.844L117.662 34.8178C116.958 33.4899 115.59 32.7253 113.94 32.7253C111.888 32.7253 110.258 33.9124 110.258 35.8037C110.258 39.4053 115.67 38.3993 115.67 40.19C115.67 40.9948 114.926 41.3167 113.96 41.3167C112.853 41.3167 112.049 40.7735 111.727 39.868L109.855 40.9545C110.499 42.4032 111.948 43.3086 113.96 43.3086C116.133 43.3086 117.884 42.2221 117.884 40.2101C117.884 36.4878 112.471 37.5944 112.471 35.7635Z" fill="#222222"/>
</svg>
