<svg width="116" height="41" viewBox="0 0 116 41" fill="none" xmlns="http://www.w3.org/2000/svg">
<path d="M51.6968 14.6647C52.4023 14.6647 52.9575 14.098 52.9575 13.404C52.9575 12.6985 52.4023 12.1433 51.6968 12.1433C51.0028 12.1433 50.436 12.6985 50.436 13.404C50.436 14.098 51.0028 14.6647 51.6968 14.6647ZM50.6905 28.7294H52.703V16.7004H50.6905V28.7294Z" fill="#222222"/>
<path d="M55.7566 28.7294H62.0602C65.6111 28.7294 67.7162 26.9829 67.7162 24.045V24.0219C67.7162 21.8127 66.2588 20.1935 63.853 19.9159V19.8696C65.5764 19.6267 66.8718 17.9496 66.8718 16.2262V16.2031C66.8718 13.7047 64.9402 12.0392 62.0833 12.0392H55.7566V28.7294ZM61.6091 13.8782C63.6217 13.8782 64.7667 14.7804 64.7667 16.4228V16.446C64.7667 18.2503 63.425 19.2334 60.9614 19.2334H57.8385V13.8782H61.6091ZM61.5513 21.0262C64.2115 21.0262 65.5764 22.0094 65.5764 23.941V23.9641C65.5764 25.8841 64.2462 26.8904 61.7479 26.8904H57.8385V21.0262H61.5513Z" fill="#222222"/>
<path d="M74.7485 28.9607C78.068 28.9607 80.3119 26.5549 80.3119 22.7149V22.6918C80.3119 18.8518 78.0565 16.4691 74.7369 16.4691C71.4174 16.4691 69.1735 18.8633 69.1735 22.6918V22.7149C69.1735 26.5434 71.4058 28.9607 74.7485 28.9607ZM74.7601 27.1795C72.6318 27.1795 71.2323 25.5487 71.2323 22.7149V22.6918C71.2323 19.8812 72.6434 18.2503 74.7369 18.2503C76.8651 18.2503 78.2531 19.8696 78.2531 22.6918V22.7149C78.2531 25.5371 76.8767 27.1795 74.7601 27.1795Z" fill="#222222"/>
<path d="M87.3327 28.9607C90.6522 28.9607 92.8961 26.5549 92.8961 22.7149V22.6918C92.8961 18.8518 90.6406 16.4691 87.3211 16.4691C84.0016 16.4691 81.7577 18.8633 81.7577 22.6918V22.7149C81.7577 26.5434 83.99 28.9607 87.3327 28.9607ZM87.3442 27.1795C85.216 27.1795 83.8165 25.5487 83.8165 22.7149V22.6918C83.8165 19.8812 85.2276 18.2503 87.3211 18.2503C89.4493 18.2503 90.8373 19.8696 90.8373 22.6918V22.7149C90.8373 25.5371 89.4609 27.1795 87.3442 27.1795Z" fill="#222222"/>
<path d="M95.0937 28.7294H97.1062V24.1954L98.2282 23.1197L102.693 28.7294H105.029L99.6508 21.8937L104.867 16.7004H102.427L97.1525 22.0094H97.1062V12.0392H95.0937V28.7294Z" fill="#222222"/>
<path d="M110.234 28.9607C112.917 28.9607 114.907 27.4803 114.907 25.3752V25.3636C114.907 23.6518 114.028 22.6918 111.599 22.1019L109.69 21.6392C108.36 21.3154 107.817 20.7486 107.817 19.9274V19.9159C107.817 18.8518 108.719 18.1462 110.176 18.1462C111.668 18.1462 112.559 18.9212 112.721 20.0894L112.732 20.1703H114.652L114.641 20.02C114.49 18.0074 112.813 16.4691 110.176 16.4691C107.574 16.4691 105.758 17.938 105.758 20.0084V20.02C105.758 21.7549 106.857 22.8074 109.124 23.3511L111.032 23.8137C112.397 24.1491 112.848 24.6349 112.848 25.5024V25.514C112.848 26.6012 111.876 27.2836 110.246 27.2836C108.603 27.2836 107.713 26.5781 107.47 25.3752L107.447 25.2595H105.434L105.446 25.3636C105.688 27.515 107.4 28.9607 110.234 28.9607Z" fill="#222222"/>
<path fill-rule="evenodd" clip-rule="evenodd" d="M40.3083 28.0453C40.3083 28.5268 40.3084 29.0081 40.3056 29.4896C40.3032 29.8951 40.2985 30.3005 40.2875 30.706C40.2636 31.589 40.2116 32.4797 40.0547 33.3531C39.8955 34.2399 39.6353 35.0652 39.2252 35.8707C38.8223 36.6621 38.296 37.3862 37.6681 38.014C37.0401 38.6419 36.3159 39.1682 35.5244 39.5712C34.7192 39.9811 33.8944 40.2411 33.0081 40.4003C32.1344 40.5573 31.2434 40.6094 30.3599 40.6333C29.9545 40.6442 29.5491 40.6489 29.1436 40.6513C28.6621 40.6543 28.1807 40.654 27.6993 40.654H12.6089C12.1274 40.654 11.6461 40.6543 11.1646 40.6513C10.759 40.6489 10.3536 40.6442 9.94821 40.6333C9.06487 40.6094 8.17372 40.5573 7.30005 40.4003C6.41373 40.2411 5.58897 39.981 4.7837 39.5712C3.99223 39.1683 3.26801 38.6419 2.64006 38.014C2.01226 37.3862 1.48598 36.6621 1.08299 35.8707C0.672891 35.065 0.412668 34.2399 0.253405 33.3531C0.0965606 32.4799 0.044516 31.589 0.0206267 30.706C0.00967739 30.3005 0.00498484 29.8951 0.00256747 29.4896C-0.000276497 29.0081 7.89992e-06 28.5268 7.89992e-06 28.0453V12.9549C7.89992e-06 12.4736 -0.000276497 11.9921 0.00270967 11.5107C0.00512704 11.1052 0.00981959 10.6998 0.0207689 10.2944C0.0446582 9.41131 0.0967028 8.52058 0.253548 7.64719C0.41281 6.76045 0.673033 5.93513 1.08313 5.12957C1.48598 4.33824 2.01226 3.61416 2.64021 2.98636C3.26815 2.35827 3.99237 1.83199 4.78385 1.429C5.58912 1.01904 6.41387 0.759102 7.30019 0.59984C8.17386 0.442853 9.06487 0.390808 9.94835 0.366919C10.3538 0.355969 10.7592 0.351277 11.1647 0.34886C11.6461 0.345873 12.1275 0.346016 12.6089 0.346016H27.6993C28.1807 0.346016 28.6621 0.345731 29.1436 0.348717C29.5491 0.351135 29.9545 0.355827 30.3599 0.366777C31.2433 0.390666 32.1344 0.442711 33.0081 0.599698C33.8944 0.75896 34.7192 1.01904 35.5244 1.42886C36.3159 1.8317 37.0401 2.35812 37.6681 2.98607C38.2959 3.61388 38.8222 4.33795 39.2252 5.12929C39.6353 5.93498 39.8955 6.76016 40.0547 7.64691C40.2116 8.52015 40.2636 9.41102 40.2875 10.2941C40.2985 10.6995 40.3032 11.1049 40.3056 11.5104C40.3086 11.9919 40.3083 12.4733 40.3083 12.9548V28.0453ZM7.53425 11.102C6.53303 11.8351 6.46605 12.5714 6.46605 13.2473C6.46577 16.8845 6.46634 25.4709 6.46605 29.1082C6.46605 29.7841 6.91625 29.8684 7.53425 29.4111C10.8869 26.9784 14.992 27.1022 17.3914 28.9562C19.7337 30.69 19.7344 32.9791 19.7344 32.3033C19.7344 28.666 19.7344 19.5976 19.7344 15.9603C19.7344 13.0122 19.3288 12.7117 18.6667 11.6997C16.0424 8.62737 10.8864 8.66946 7.53425 11.102ZM33.8421 29.1082C33.8421 29.7841 33.3919 29.8684 32.7739 29.4111C29.4213 26.9784 25.3162 27.1022 22.9167 28.9562C20.5744 30.69 20.5737 32.9791 20.5737 32.3033C20.5737 28.666 20.5737 19.5976 20.5737 15.9603C20.5737 13.0122 20.9794 12.7117 21.6415 11.6997C24.2656 8.62737 29.4216 8.66946 32.7738 11.102C33.775 11.8349 33.842 12.5714 33.842 13.2471C33.8425 16.8845 33.8418 25.4709 33.8421 29.1082Z" fill="#222222"/>
</svg>
